<?xml version="1.0" standalone="no"?>
<!DOCTYPE svg PUBLIC "-//W3C//DTD SVG 20010904//EN"
 "http://www.w3.org/TR/2001/REC-SVG-20010904/DTD/svg10.dtd">
<svg version="1.0" xmlns="http://www.w3.org/2000/svg"
 width="1536.000000pt" height="1536.000000pt" viewBox="0 0 1536.000000 1536.000000"
 preserveAspectRatio="xMidYMid meet">
<metadata>
Created by potrace 1.14, written by Peter Selinger 2001-2017
</metadata>
<g transform="translate(0.000000,1536.000000) scale(0.100000,-0.100000)"
fill="#000000" stroke="none">
<path d="M10692 11344 c-35 -18 -144 -133 -232 -244 -28 -36 -57 -72 -65 -81
-7 -9 -43 -60 -80 -113 -38 -53 -71 -96 -74 -96 -17 -2 -99 -21 -201 -49 -63
-17 -125 -34 -138 -36 -13 -3 -44 -13 -69 -21 -25 -9 -53 -17 -62 -19 -9 -2
-45 -13 -81 -25 -36 -12 -69 -23 -75 -25 -5 -1 -23 -7 -38 -13 -16 -7 -33 -12
-38 -12 -5 0 -17 -4 -27 -9 -20 -11 -257 -103 -289 -113 -13 -3 -25 -3 -28 2
-3 5 -13 7 -23 5 -9 -2 -22 -4 -29 -4 -15 -1 -199 -183 -238 -236 -16 -22 -33
-42 -36 -45 -3 -3 -36 -49 -73 -102 -37 -54 -69 -98 -70 -98 -1 0 -45 22 -98
49 -163 85 -300 114 -396 86 -82 -25 -221 -141 -312 -261 -39 -52 -60 -84 -60
-93 0 -5 -3 -11 -8 -13 -21 -9 -95 -205 -108 -288 -21 -136 4 -340 48 -397 7
-9 -2 -34 -28 -80 -44 -80 -218 -367 -233 -385 -6 -7 -37 -49 -70 -93 -64 -87
-162 -191 -229 -243 l-42 -34 -2 29 c-3 66 7 202 21 263 5 25 12 57 15 73 3
15 8 39 12 54 7 37 44 175 51 193 3 8 7 20 8 25 24 105 192 581 223 630 4 5 7
15 8 20 1 6 13 35 27 65 43 91 40 117 -18 174 -76 77 -235 136 -308 115 -41
-12 -77 -37 -77 -53 0 -8 -4 -16 -8 -18 -4 -1 -35 -57 -69 -123 -96 -189 -133
-259 -144 -269 -5 -6 -9 -18 -9 -27 0 -10 -4 -19 -8 -21 -5 -1 -30 -43 -57
-93 -27 -49 -77 -138 -112 -197 -35 -59 -63 -112 -63 -117 0 -6 -4 -11 -8 -11
-5 0 -17 -18 -27 -40 -10 -22 -22 -40 -27 -40 -4 0 -8 -6 -8 -14 0 -8 -6 -21
-13 -28 -7 -7 -20 -28 -28 -45 -7 -18 -17 -33 -21 -33 -5 0 -8 -7 -8 -15 0 -8
-4 -15 -9 -15 -5 0 -14 -13 -21 -30 -7 -16 -16 -30 -21 -30 -5 0 -9 -5 -9 -10
0 -9 -123 -199 -152 -235 -4 -5 -27 -35 -50 -65 -58 -75 -90 -110 -111 -121
-15 -9 -17 -5 -12 34 3 24 9 57 14 75 5 18 7 32 4 32 -3 0 -1 6 5 13 6 7 13
26 16 42 2 17 5 31 6 33 2 1 4 7 5 12 1 6 4 12 5 15 1 3 3 8 4 13 17 64 117
345 145 407 11 23 23 56 27 70 10 42 129 308 193 435 21 41 37 83 35 94 -4 30
-54 74 -118 105 -143 69 -239 65 -296 -12 -71 -94 -249 -501 -331 -752 -17
-55 -32 -102 -32 -105 0 -3 -11 -36 -24 -75 -13 -38 -24 -72 -24 -75 0 -3 -4
-23 -10 -45 -6 -22 -13 -48 -15 -57 -2 -10 -6 -27 -9 -38 -14 -54 -16 -67 -21
-99 -2 -19 -6 -37 -9 -40 -7 -13 -19 -155 -18 -213 2 -63 17 -99 60 -144 57
-61 189 -118 297 -129 32 -3 62 -8 67 -11 5 -3 9 -2 9 3 0 4 22 9 48 9 87 3
140 40 287 199 56 60 225 282 225 294 0 5 4 11 8 13 4 2 18 20 31 41 12 20 26
37 30 37 5 0 7 -17 6 -37 -3 -62 20 -157 48 -205 58 -100 238 -216 344 -222
79 -5 156 28 231 98 31 29 31 27 -17 -52 -76 -127 -100 -217 -81 -309 6 -29
16 -53 22 -53 6 0 9 -3 5 -6 -8 -8 84 -94 100 -94 7 0 13 -3 13 -8 0 -7 17
-15 85 -41 61 -23 145 -35 250 -35 141 1 244 22 365 77 55 24 216 127 257 163
176 158 249 256 309 419 15 41 16 52 19 140 4 117 -21 193 -104 316 -40 59
-58 95 -53 104 8 14 176 145 186 145 3 0 16 9 28 20 31 26 260 173 388 249 58
34 112 66 120 71 15 10 69 37 104 52 14 6 16 5 9 -4 -26 -33 -179 -448 -227
-618 -15 -52 -30 -102 -33 -110 -3 -8 -7 -22 -8 -30 -4 -25 -16 -83 -25 -125
-17 -76 -22 -110 -26 -190 -6 -102 -6 -95 0 -130 4 -16 9 -41 11 -55 3 -14 7
-34 9 -45 5 -27 44 -122 64 -160 16 -29 76 -109 97 -130 125 -125 365 -181
511 -120 43 18 114 64 114 74 0 4 -18 8 -41 9 -116 7 -211 93 -247 222 -21 79
-20 279 3 395 3 17 8 41 11 55 3 14 7 36 9 50 2 14 9 48 15 75 7 28 14 59 16
70 4 20 25 93 63 218 56 181 172 475 272 686 27 57 49 107 49 112 0 5 5 9 10
9 6 0 9 3 8 8 -5 18 249 483 313 574 11 14 19 29 19 32 0 8 180 273 255 375
37 50 74 92 83 92 9 1 26 3 37 4 11 2 45 6 75 9 30 4 66 9 80 11 103 17 500
24 637 12 197 -18 352 -54 440 -102 105 -58 138 -101 145 -196 2 -22 5 -25 18
-17 64 40 92 178 59 289 -47 162 -161 269 -334 315 -23 7 -182 36 -210 39
-144 17 -493 24 -592 13 -34 -4 -43 5 -20 19 25 15 60 75 62 106 10 114 -187
281 -344 294 -40 3 -66 -1 -89 -13z m-722 -982 c0 -4 -4 -12 -9 -17 -31 -33
-401 -746 -401 -774 0 -6 -4 -11 -10 -11 -5 0 -9 -3 -7 -8 1 -4 -9 -30 -22
-59 -25 -51 -25 -51 -70 -50 -72 0 -161 -29 -321 -106 -25 -12 -47 -24 -50
-27 -3 -3 -14 -10 -25 -16 -116 -63 -145 -81 -430 -268 -110 -72 -201 -134
-203 -138 -16 -35 -68 32 -107 137 -20 52 -39 163 -37 210 3 58 15 141 27 190
8 33 17 69 20 80 2 11 22 56 44 101 44 88 102 161 157 195 43 26 108 43 101
26 -3 -7 -21 -49 -41 -94 -19 -46 -33 -83 -30 -83 2 0 -1 -12 -9 -27 -7 -16
-12 -57 -12 -93 2 -113 69 -211 182 -266 61 -30 120 -37 114 -14 -8 31 -3 119
9 156 15 45 61 147 70 154 4 3 9 12 13 20 12 26 120 184 137 200 3 3 18 23 35
45 47 63 264 277 274 271 12 -8 91 23 91 35 0 5 6 9 14 9 8 0 16 3 18 8 2 4
28 20 58 36 30 16 79 41 108 57 28 15 52 25 52 21 0 -4 4 -2 8 4 6 10 226 104
245 104 4 0 7 -4 7 -8z m-2005 -1538 c10 -14 26 -34 35 -44 9 -10 25 -31 36
-45 10 -15 25 -34 33 -42 7 -7 12 -15 10 -17 -2 -2 -31 -22 -64 -46 -33 -24
-62 -46 -65 -49 -3 -4 -23 -19 -45 -36 -22 -16 -42 -32 -45 -36 -3 -3 -34 -30
-70 -60 -91 -75 -121 -101 -139 -121 -32 -36 -31 -16 1 30 37 53 32 45 131
212 40 69 91 160 113 202 21 43 41 78 44 78 3 0 14 -12 25 -26z m267 -477 c0
-25 -9 -66 -21 -91 -11 -25 -17 -46 -13 -46 4 0 2 -4 -3 -8 -6 -4 -16 -18 -23
-32 -7 -14 -26 -40 -42 -59 -17 -18 -30 -37 -30 -41 0 -4 -37 -44 -82 -89 -75
-75 -202 -171 -226 -171 -5 0 -23 -7 -38 -15 -39 -20 -55 -19 -48 3 11 32 37
87 54 112 9 14 34 52 56 85 21 33 113 133 204 223 91 89 172 169 180 177 21
21 32 4 32 -48z"/>
<path d="M3328 11155 c-2 -2 -50 -6 -108 -9 -58 -2 -105 -5 -105 -6 0 -1 -9
-3 -20 -4 -79 -11 -126 -19 -165 -27 -25 -6 -54 -12 -65 -13 -12 -1 -25 -5
-30 -8 -8 -4 -52 -17 -85 -23 -39 -7 -305 -111 -326 -127 -6 -4 -35 -20 -65
-36 -91 -47 -241 -141 -259 -161 -3 -3 -34 -28 -70 -55 -62 -47 -596 -576
-709 -701 -173 -194 -345 -463 -469 -736 -34 -75 -119 -304 -126 -340 -2 -13
-9 -36 -15 -51 -6 -16 -8 -28 -6 -28 2 0 0 -11 -5 -25 -5 -14 -12 -36 -14 -48
-3 -12 -16 -76 -31 -142 -15 -66 -29 -131 -31 -145 -3 -14 -16 -74 -30 -135
-14 -60 -27 -119 -29 -130 -2 -11 -6 -31 -10 -45 -3 -14 -8 -34 -9 -45 -2 -11
-15 -73 -30 -137 -25 -117 -31 -144 -41 -195 -3 -16 -11 -46 -17 -68 -6 -22
-12 -47 -13 -55 -5 -43 -18 -106 -23 -115 -3 -5 -7 -16 -8 -25 -10 -102 -93
-282 -197 -426 -86 -122 -159 -259 -171 -327 -2 -15 -7 -30 -10 -35 -3 -5 -8
-22 -10 -38 -3 -16 -9 -40 -12 -54 -9 -37 -14 -272 -5 -293 5 -15 18 -3 70 64
79 101 253 279 341 346 69 54 173 119 230 145 111 51 139 61 208 79 88 23 102
26 197 35 153 15 271 -3 382 -59 55 -29 153 -114 153 -134 0 -7 4 -13 8 -13 8
0 65 -95 67 -110 0 -3 6 -15 13 -27 15 -27 49 -168 58 -243 16 -121 10 -444
-11 -620 -3 -25 -7 -63 -10 -85 -5 -56 -20 -168 -30 -235 -2 -14 -7 -45 -10
-70 -3 -25 -10 -67 -15 -95 -5 -27 -11 -70 -15 -95 -3 -25 -7 -54 -9 -65 -2
-11 -7 -40 -11 -65 -4 -25 -9 -54 -11 -65 -3 -11 -7 -38 -10 -60 -3 -22 -9
-53 -13 -70 -4 -16 -7 -46 -7 -65 1 -31 5 -36 41 -49 55 -18 96 -29 195 -52
84 -18 118 -24 193 -34 l38 -4 36 77 c40 88 47 105 99 222 34 78 51 116 113
252 11 26 21 52 21 57 0 6 5 11 10 11 6 0 10 8 10 18 0 9 7 26 15 36 8 10 12
23 9 27 -3 5 0 9 5 9 6 0 11 4 11 9 0 22 307 649 399 816 28 50 57 104 66 120
8 17 25 48 38 70 13 22 33 57 45 77 11 20 32 55 46 77 15 22 26 43 26 46 0 3
5 11 10 18 6 7 47 68 91 137 70 107 171 249 204 286 5 7 24 29 40 50 68 85
150 165 220 213 40 28 76 51 79 51 3 0 29 11 57 25 230 110 612 116 825 13 93
-45 155 -115 148 -165 -1 -7 -2 -21 -3 -30 -3 -42 -17 -44 -53 -10 -19 18 -51
38 -71 44 -35 10 -141 11 -197 0 -35 -6 -119 -41 -160 -66 -19 -11 -42 -24
-50 -28 -8 -3 -17 -9 -20 -13 -3 -3 -25 -21 -50 -40 -67 -51 -204 -192 -297
-306 -228 -279 -395 -531 -648 -983 -126 -223 -259 -474 -377 -711 -40 -80
-77 -148 -83 -152 -5 -4 -7 -8 -2 -8 4 0 -8 -30 -27 -67 -19 -38 -37 -75 -41
-83 -3 -8 -12 -26 -20 -40 -20 -35 -3 -37 97 -10 44 12 88 23 97 25 76 15 430
175 451 205 3 3 12 9 21 12 34 13 219 160 299 239 47 46 113 118 145 159 33
41 63 77 68 78 4 2 7 10 7 18 0 8 3 14 8 14 4 0 18 20 32 45 14 25 28 45 32
45 5 0 8 4 8 9 0 6 15 36 34 68 19 32 35 63 37 68 1 6 9 16 16 23 7 7 13 20
13 28 0 8 5 14 10 14 6 0 10 4 10 9 0 9 90 172 100 181 3 3 19 31 35 64 17 32
40 72 53 89 12 17 22 34 22 39 0 4 20 42 45 84 25 41 45 80 45 85 0 5 5 9 10
9 6 0 10 5 10 10 0 6 37 75 82 153 45 78 95 167 111 197 17 30 38 66 47 80 9
14 24 41 34 60 9 19 34 63 56 98 21 34 37 62 35 62 -3 0 11 25 30 55 19 30 35
56 35 59 0 3 13 27 29 54 15 26 39 68 53 93 14 24 44 76 67 116 22 39 50 89
62 110 67 120 194 339 198 343 3 3 7 12 9 20 2 8 8 21 14 28 38 45 161 300
205 422 37 103 87 295 98 375 3 28 8 64 11 80 24 175 19 435 -13 610 -4 22 -8
45 -9 50 -1 6 -3 12 -4 15 -1 3 -4 19 -6 35 -8 53 -81 293 -94 310 -5 6 -9 13
-10 17 -9 56 -128 287 -203 398 -98 145 -271 338 -399 446 -86 72 -282 208
-292 202 -2 -2 -12 4 -22 13 -21 19 -245 127 -274 133 -3 1 -9 4 -15 8 -31 19
-251 81 -367 103 -16 3 -38 7 -50 9 -49 10 -118 17 -223 22 -60 3 -118 6 -127
8 -9 2 -18 2 -20 1z m652 -688 c14 -3 46 -8 72 -12 39 -4 86 -15 213 -49 28
-7 62 -18 83 -27 12 -5 32 -13 45 -18 12 -5 36 -14 52 -20 46 -18 217 -117
244 -140 13 -12 28 -21 32 -21 15 0 226 -214 256 -260 37 -54 88 -164 97 -205
3 -16 9 -41 12 -55 11 -53 11 -176 -2 -239 -13 -73 -57 -190 -99 -267 -47 -85
-127 -214 -134 -214 -3 0 -17 -18 -31 -40 -13 -22 -28 -40 -32 -40 -4 0 -8 -4
-8 -10 0 -5 -9 -19 -20 -30 l-21 -21 59 -31 c70 -35 136 -94 179 -158 28 -42
63 -120 63 -139 0 -5 -33 0 -72 11 -82 22 -100 26 -143 33 -16 3 -37 8 -45 10
-56 15 -262 26 -292 16 -9 -3 -41 -29 -70 -56 -50 -47 -158 -142 -203 -178
-11 -9 -38 -31 -61 -49 -22 -18 -53 -42 -68 -53 -15 -11 -43 -31 -60 -45 -18
-14 -45 -34 -61 -45 -88 -64 -131 -95 -142 -105 -7 -5 -17 -10 -23 -10 -5 0
-10 -4 -10 -10 0 -5 -6 -10 -14 -10 -8 0 -16 -3 -18 -8 -1 -4 -52 -39 -113
-78 -179 -114 -211 -134 -223 -134 -5 0 -12 -4 -14 -9 -5 -13 -213 -122 -406
-212 -91 -43 -377 -163 -392 -164 -3 -1 -30 -9 -60 -20 -30 -11 -57 -20 -60
-20 -27 -7 -76 -20 -130 -36 -36 -10 -82 -21 -104 -24 -21 -3 -41 -7 -45 -9
-3 -2 -22 -7 -41 -10 -19 -3 -46 -8 -60 -11 -112 -24 -202 -30 -385 -28 -93 1
-177 2 -185 3 -32 4 -126 19 -150 25 -14 3 -36 8 -50 11 -47 9 -185 57 -188
65 -2 5 -10 9 -18 9 -43 0 -244 166 -244 202 0 5 -8 20 -17 35 -23 34 -25 46
-26 128 -1 86 4 110 41 188 66 141 279 343 472 448 25 13 47 27 50 30 9 11
263 134 365 178 55 23 109 46 120 52 126 57 453 158 650 200 33 7 62 13 65 14
53 11 100 20 160 29 19 3 44 7 55 10 11 2 43 7 70 10 28 4 61 9 75 11 14 2 48
6 75 9 28 3 73 8 100 11 94 11 130 14 260 21 141 8 427 10 598 3 l107 -4 43
41 c120 117 247 260 342 389 95 127 152 227 187 326 50 141 51 217 7 304 -27
51 -121 132 -161 139 -7 1 -18 4 -23 8 -13 8 -132 39 -170 44 -16 2 -41 6 -55
9 -29 6 -273 6 -340 0 -62 -5 -162 -16 -180 -20 -8 -2 -35 -6 -60 -9 -25 -4
-52 -9 -60 -11 -8 -2 -31 -7 -50 -10 -19 -3 -73 -15 -120 -26 -47 -12 -92 -22
-100 -24 -8 -2 -53 -16 -100 -30 -47 -15 -89 -28 -95 -29 -5 -2 -17 -6 -25 -9
-19 -8 -102 -37 -115 -41 -5 -1 -26 -9 -46 -18 -20 -9 -46 -19 -58 -23 -45
-14 -243 -116 -333 -171 -178 -110 -284 -204 -361 -322 -113 -174 -113 -294
-1 -407 40 -39 134 -94 174 -102 8 -1 26 -4 40 -7 14 -2 31 -5 39 -5 18 -1 6
-14 -17 -18 -37 -6 -159 -5 -192 1 -19 4 -46 9 -60 12 -79 14 -91 17 -96 25
-3 5 -13 9 -23 9 -10 0 -46 14 -81 31 -214 103 -336 247 -347 406 -6 85 28
196 88 285 51 75 183 210 269 274 36 27 67 52 68 57 2 4 8 7 14 7 5 0 24 11
42 25 18 14 38 25 44 25 7 0 12 4 12 9 0 5 21 19 48 31 26 12 49 25 52 29 9
12 234 118 320 151 47 18 99 38 115 45 24 11 71 26 125 40 3 1 37 11 76 23 87
27 269 68 343 77 30 4 63 9 75 11 12 2 55 7 96 11 41 3 76 7 78 8 5 5 417 -3
442 -8z"/>
<path d="M3749 8626 c-2 -2 -58 -7 -124 -11 -66 -3 -133 -8 -150 -10 -16 -3
-54 -7 -84 -11 -30 -3 -64 -8 -75 -10 -12 -2 -39 -7 -61 -9 -22 -3 -72 -12
-112 -20 -39 -8 -87 -17 -105 -20 -18 -3 -105 -24 -193 -46 -88 -22 -167 -41
-175 -43 -8 -3 -49 -14 -90 -26 -41 -11 -82 -23 -90 -25 -8 -2 -60 -18 -115
-36 -55 -18 -102 -33 -105 -34 -14 -3 -116 -38 -125 -44 -5 -3 -15 -6 -22 -7
-20 -3 -177 -65 -215 -85 -21 -11 -41 -20 -45 -21 -17 -1 -243 -110 -338 -163
-216 -120 -356 -259 -341 -341 10 -55 98 -83 251 -79 120 3 135 5 306 41 101
21 407 103 449 121 8 3 24 8 34 10 11 2 25 8 33 14 7 6 13 9 13 5 0 -3 15 0
33 7 17 8 36 14 40 15 23 2 300 113 368 148 26 13 49 20 53 17 3 -4 6 -1 6 5
0 6 17 16 38 23 20 6 39 15 42 19 3 4 23 16 45 27 64 32 158 84 187 104 14 11
28 19 31 19 4 0 140 88 202 131 273 188 448 315 453 330 4 9 -11 13 -19 5z"/>
<path d="M11085 10528 c-34 -13 -59 -38 -77 -79 -7 -16 -16 -29 -20 -29 -5 0
-8 -4 -8 -10 0 -5 -13 -32 -30 -60 -16 -28 -30 -56 -30 -62 0 -6 -6 -19 -13
-27 -15 -18 -70 -161 -88 -232 -17 -63 1 -100 63 -134 146 -79 279 -80 338 -1
14 19 79 107 145 197 66 90 122 166 126 169 14 11 39 71 39 94 0 25 -53 96
-72 96 -5 0 -22 8 -36 18 -77 53 -267 87 -337 60z"/>
<path d="M11675 9909 c-33 -9 -82 -52 -96 -84 -2 -6 -40 -80 -84 -165 -43 -85
-80 -157 -80 -160 -1 -3 -16 -36 -34 -75 -18 -38 -50 -113 -72 -165 -52 -126
-68 -157 -104 -201 -16 -20 -52 -66 -80 -101 -27 -34 -54 -68 -60 -74 -5 -7
-30 -36 -55 -65 -88 -104 -238 -245 -301 -281 -168 -100 -178 -1 -29 304 33
68 76 151 95 186 82 148 202 351 221 372 7 8 12 17 12 20 -1 3 12 25 27 50 35
54 39 108 10 140 -92 103 -357 178 -433 124 -28 -21 -155 -203 -209 -301 -77
-140 -193 -382 -200 -417 -2 -11 -8 -24 -13 -30 -22 -27 -135 -357 -156 -457
-26 -125 -27 -142 -8 -209 42 -150 311 -276 512 -238 39 7 185 74 215 98 7 5
48 36 92 69 44 32 91 71 104 85 34 36 41 33 25 -13 -7 -22 -15 -50 -18 -64 -2
-14 -9 -35 -16 -46 -6 -12 -9 -21 -6 -21 2 0 0 -16 -5 -35 -8 -27 -6 -43 7
-70 9 -19 20 -35 24 -35 5 0 15 -6 23 -14 38 -38 191 -87 271 -87 70 0 105 18
136 74 14 25 45 80 69 123 74 133 238 387 373 579 68 96 230 298 292 364 70
74 150 151 154 147 1 -2 -6 -25 -16 -52 -18 -46 -97 -305 -107 -349 -2 -11 -8
-35 -14 -53 -5 -18 -10 -35 -10 -37 -1 -3 -1 -6 -2 -7 -2 -7 -8 -36 -14 -67
-3 -19 -7 -37 -9 -40 -7 -10 -17 -84 -22 -155 -2 -38 -7 -72 -10 -77 -3 -5 -2
-9 3 -9 4 0 8 -15 9 -32 1 -18 2 -43 2 -55 1 -12 21 -42 45 -66 132 -138 409
-203 552 -130 94 48 297 229 375 333 14 18 32 40 41 49 9 9 44 54 78 101 34
47 68 93 76 103 8 9 15 20 15 24 0 3 16 25 35 49 19 23 35 45 35 48 0 4 17 32
39 64 47 70 131 207 151 247 8 17 17 32 20 35 3 3 17 28 31 55 l27 51 -20 27
c-41 56 -147 98 -190 76 -10 -5 -25 -24 -34 -42 -9 -18 -20 -34 -23 -37 -3 -3
-14 -21 -25 -40 -35 -65 -164 -256 -231 -341 -36 -46 -78 -100 -93 -119 -40
-51 -249 -260 -307 -307 -27 -21 -68 -50 -90 -63 -22 -13 -46 -30 -53 -37 -7
-7 -17 -13 -21 -13 -12 0 -5 78 15 170 15 70 63 225 85 275 4 11 22 56 39 100
18 44 34 84 38 90 4 5 7 15 8 20 3 15 50 126 68 160 9 17 16 33 16 37 0 4 18
44 39 90 57 122 97 221 96 238 -1 32 -17 80 -26 80 -5 0 -9 5 -9 10 0 34 -139
125 -229 151 -119 35 -200 18 -306 -64 -34 -26 -134 -106 -154 -122 -39 -33
-253 -251 -296 -301 -22 -26 -45 -52 -50 -58 -6 -6 -35 -42 -65 -81 -30 -38
-58 -71 -62 -73 -5 -2 -8 -8 -8 -13 0 -6 -9 -20 -21 -32 l-20 -22 19 46 c11
26 32 65 46 88 14 22 26 43 26 46 0 3 18 35 40 71 22 36 40 67 40 69 0 2 25
46 55 99 30 52 55 99 55 105 0 5 3 11 8 13 9 4 70 127 74 148 5 37 -51 101
-132 151 -68 42 -176 64 -235 48z"/>
<path d="M12316 7880 c-102 -51 -186 -140 -244 -260 -54 -111 -51 -188 8 -224
96 -57 175 -177 198 -299 8 -44 6 -232 -3 -287 -10 -62 -40 -217 -49 -255 -2
-5 -6 -23 -10 -40 -4 -16 -11 -39 -16 -50 -5 -11 -21 -58 -36 -105 -15 -47
-29 -89 -33 -95 -3 -5 -6 -12 -7 -15 -1 -8 -15 -39 -45 -108 -15 -34 -28 -65
-28 -67 -1 -10 -140 -274 -165 -314 -14 -22 -26 -45 -26 -51 0 -5 -4 -10 -9
-10 -5 0 -12 -8 -15 -17 -10 -29 -107 -172 -141 -209 -5 -7 -23 -29 -40 -50
-54 -67 -115 -122 -159 -144 -83 -40 -121 -6 -132 117 -7 78 -7 76 -5 83 1 3
4 36 6 74 4 77 10 125 30 253 4 24 6 44 4 45 -1 2 3 13 9 24 6 12 14 36 17 54
7 38 63 210 94 290 30 76 124 284 130 290 4 3 26 46 50 95 25 50 50 93 55 97
6 4 8 8 3 8 -4 0 4 18 19 41 32 51 35 83 13 136 -58 138 -285 249 -385 188
-33 -20 -68 -66 -139 -180 -63 -102 -66 -105 -91 -92 -10 6 -21 13 -24 16 -26
30 -240 159 -291 175 -13 5 -31 10 -39 13 -8 3 -46 6 -85 6 -71 1 -117 -16
-197 -71 -38 -25 -138 -123 -190 -184 -24 -28 -53 -61 -65 -74 -13 -13 -23
-26 -23 -30 0 -3 -12 -21 -27 -39 -16 -17 -33 -40 -39 -50 -10 -18 -12 -17
-41 4 -17 13 -45 23 -62 24 -31 2 -37 -5 -107 -106 -41 -59 -74 -110 -74 -113
0 -3 -5 -10 -11 -17 -19 -22 -139 -209 -139 -217 0 -5 -4 -10 -9 -12 -5 -1
-30 -34 -56 -73 -145 -213 -318 -431 -428 -537 -50 -49 -94 -88 -98 -88 -4 0
-14 -6 -21 -13 -15 -15 -99 -61 -143 -78 -113 -44 -189 -13 -224 90 -13 41 -8
265 8 334 6 27 9 53 6 58 -4 5 -1 9 6 9 7 0 10 2 7 6 -9 8 59 252 102 367 12
31 21 59 21 62 0 2 20 51 45 107 53 120 66 152 64 157 -1 2 2 7 7 10 4 3 17
24 28 46 42 84 128 210 181 263 58 59 76 63 50 13 -34 -64 -88 -209 -111 -294
-56 -208 -2 -345 167 -426 70 -33 98 -38 145 -27 31 7 33 10 30 49 -2 22 0 61
5 86 5 26 11 57 14 70 9 45 70 186 117 273 56 103 169 256 255 348 33 36 64
78 67 93 14 60 -79 191 -189 266 -24 17 -49 31 -55 31 -6 0 -11 4 -11 8 0 5
-6 9 -12 10 -92 10 -113 10 -144 -3 -19 -8 -34 -18 -34 -24 0 -5 -6 -16 -13
-23 -10 -10 -42 -55 -104 -147 -2 -3 -47 17 -100 44 -53 26 -112 49 -131 51
-36 3 -153 -36 -183 -62 -8 -8 -19 -14 -22 -14 -7 0 -38 -24 -69 -52 -10 -10
-20 -18 -22 -18 -5 0 -106 -101 -106 -106 0 -2 -8 -12 -17 -22 -51 -53 -146
-189 -229 -327 -19 -32 -37 -50 -49 -50 -13 0 -44 -39 -101 -125 -46 -69 -88
-130 -94 -137 -5 -7 -15 -24 -22 -38 -6 -14 -15 -25 -20 -25 -4 0 -8 -5 -8
-10 0 -12 -41 -73 -52 -78 -5 -2 -8 -10 -8 -18 0 -8 -4 -14 -10 -14 -5 0 -10
-4 -10 -10 0 -5 -42 -68 -92 -139 -286 -400 -429 -550 -608 -642 -54 -28 -76
-33 -130 -34 -51 0 -70 4 -88 20 -32 27 -54 80 -58 140 -2 28 -4 52 -5 55 -1
3 -1 9 0 13 1 5 4 44 6 87 11 181 115 550 219 775 13 28 26 60 30 73 4 12 11
22 15 22 4 0 8 6 8 13 0 18 98 189 140 245 48 62 94 111 116 123 17 9 17 8 4
-23 -19 -43 -62 -147 -72 -173 -20 -50 -64 -215 -58 -215 3 0 0 -6 -6 -13 -6
-8 -9 -16 -6 -19 3 -3 7 -27 9 -54 6 -62 8 -72 28 -109 61 -113 239 -208 315
-167 18 10 21 20 21 69 -1 32 9 94 21 138 25 90 115 281 173 365 21 30 44 63
51 74 34 51 79 105 164 196 45 48 51 60 49 90 -2 19 -13 53 -25 75 -23 46
-111 145 -128 145 -6 0 -13 6 -16 13 -2 7 -31 26 -63 42 -45 23 -71 29 -121
30 -73 0 -66 5 -155 -125 -28 -41 -53 -77 -55 -79 -1 -2 -31 9 -66 26 -124 62
-143 69 -182 68 -66 -2 -193 -67 -275 -142 -19 -17 -44 -40 -55 -50 -11 -10
-45 -47 -75 -83 -30 -36 -57 -67 -60 -70 -7 -7 -110 -164 -140 -215 -14 -22
-32 -47 -41 -55 -9 -8 -42 -60 -73 -115 -31 -55 -61 -107 -66 -115 -6 -8 -19
-33 -31 -55 -12 -22 -25 -42 -28 -45 -4 -3 -18 -26 -31 -52 -14 -27 -28 -48
-32 -48 -5 0 -8 -4 -8 -10 0 -5 -26 -51 -57 -100 -32 -50 -63 -99 -68 -109
-13 -22 -68 -104 -75 -111 -3 -3 -25 -34 -50 -70 -45 -67 -56 -80 -77 -105 -7
-7 -13 -16 -13 -18 0 -9 -63 -78 -125 -139 -66 -64 -125 -99 -156 -91 -19 5
-35 45 -33 83 7 119 55 314 117 470 6 14 11 27 12 30 33 98 203 453 346 724
49 92 52 131 14 188 -83 126 -265 207 -360 161 -16 -8 -43 -33 -60 -54 -16
-22 -35 -45 -40 -52 -6 -6 -26 -32 -45 -57 -19 -25 -45 -56 -56 -70 -12 -14
-33 -38 -47 -55 l-25 -29 -63 44 c-35 24 -66 47 -69 50 -12 14 -149 89 -185
101 -22 7 -45 17 -52 22 -7 5 -40 8 -73 8 -63 0 -155 -34 -211 -77 -34 -27
-199 -194 -226 -230 -13 -16 -37 -47 -54 -69 -100 -127 -231 -348 -328 -551
-34 -71 -66 -137 -71 -146 -6 -10 -10 -22 -10 -27 0 -5 -8 -26 -17 -47 -9 -22
-17 -41 -18 -44 -1 -3 -12 -36 -24 -75 -35 -109 -70 -235 -64 -235 3 0 1 -6
-5 -12 -6 -7 -10 -16 -10 -21 0 -4 -3 -24 -6 -45 -26 -153 -30 -222 -15 -257
7 -16 12 -33 11 -37 -3 -14 109 -115 162 -147 123 -73 266 -103 341 -71 36 16
145 124 231 230 16 19 31 37 34 40 13 12 150 190 150 195 0 3 5 11 11 18 5 7
55 77 111 156 109 157 104 150 149 201 17 19 26 26 21 15 -6 -11 -10 -23 -10
-28 -1 -4 -6 -33 -13 -65 -7 -31 -13 -61 -15 -67 -61 -286 -61 -366 1 -465 66
-107 186 -187 293 -197 61 -6 155 10 182 31 8 7 27 18 43 26 15 7 27 17 27 22
0 4 7 8 15 8 8 0 15 5 15 10 0 6 5 10 10 10 6 0 22 10 35 22 148 141 231 233
310 343 11 16 25 33 31 39 5 6 19 25 29 43 33 57 40 47 40 -61 0 -91 3 -107
28 -158 34 -70 109 -146 200 -205 55 -36 164 -93 187 -99 3 0 12 -3 20 -6 133
-51 286 -68 377 -44 46 13 135 52 178 79 107 66 251 197 354 322 23 28 51 61
63 75 30 36 131 178 143 201 16 30 35 24 26 -9 -5 -15 -8 -79 -7 -142 1 -102
4 -121 27 -170 14 -30 49 -79 78 -108 52 -52 161 -132 180 -132 6 0 11 -4 11
-10 0 -5 9 -10 19 -10 11 0 22 -4 25 -8 7 -12 129 -58 206 -78 85 -22 218 -26
277 -8 48 15 148 60 167 75 6 5 30 22 52 37 86 57 193 155 267 245 18 22 40
49 51 60 10 12 46 58 79 102 34 44 65 85 70 90 4 6 14 19 22 30 13 18 13 15 0
-23 -8 -23 -14 -45 -14 -47 0 -3 -5 -31 -12 -63 -7 -31 -13 -64 -14 -72 -1 -8
-6 -42 -11 -75 -17 -127 2 -184 88 -265 46 -43 208 -140 208 -124 0 3 6 2 13
-4 24 -20 150 -32 202 -19 11 3 24 6 29 6 22 2 219 222 354 396 30 40 147 204
203 285 59 86 102 144 112 148 4 2 7 8 7 13 0 6 13 24 30 42 l30 32 -10 -35
c-9 -32 -18 -79 -36 -185 -26 -161 -19 -334 18 -412 23 -49 143 -183 164 -183
6 0 17 -7 24 -16 15 -17 154 -86 220 -108 106 -35 221 -41 293 -15 77 28 206
137 314 264 69 81 163 209 163 221 0 7 7 14 15 18 8 3 15 10 15 16 0 5 18 40
41 76 37 60 179 332 181 344 0 3 13 33 28 67 16 34 32 73 35 85 4 13 11 28 15
33 9 11 10 14 87 230 64 178 91 267 120 390 2 11 5 25 7 30 3 10 15 66 20 95
1 8 6 38 10 65 4 28 10 61 12 75 8 54 17 147 17 197 1 29 5 53 9 53 9 0 105
-49 143 -73 24 -14 103 -93 128 -127 70 -97 87 -295 41 -498 -21 -94 -128
-446 -161 -532 -4 -8 -7 -17 -8 -20 -6 -25 -18 -59 -25 -75 -17 -36 -127 -361
-162 -475 -36 -121 -89 -305 -99 -350 -12 -51 -12 -50 -35 -140 -12 -45 -17
-106 -16 -200 0 -119 3 -144 25 -208 32 -91 75 -164 136 -228 111 -117 207
-168 337 -180 70 -7 123 11 162 55 l23 26 -23 9 c-97 39 -125 67 -157 153 -14
39 -17 75 -16 179 3 151 6 179 47 379 33 165 32 163 41 185 5 12 82 296 92
335 1 6 5 17 8 25 5 14 38 124 43 145 3 14 122 391 141 445 24 71 93 303 98
327 2 13 6 26 9 31 3 5 8 24 11 43 3 19 9 43 12 54 15 47 23 280 12 340 -4 22
-9 54 -12 70 -9 53 -51 149 -87 199 -19 26 -156 164 -196 196 -70 58 -212 152
-309 205 -115 62 -204 123 -254 173 -51 51 -121 149 -121 169 0 7 -4 13 -10
13 -5 0 -10 7 -10 15 0 8 -4 15 -10 15 -5 0 -10 6 -10 14 0 17 -65 86 -82 87
-7 0 -22 2 -33 4 -11 2 -37 -5 -59 -15z m-1396 -1278 c27 -56 18 -222 -11
-222 -5 0 -9 -5 -9 -11 0 -13 -83 -133 -217 -315 -50 -68 -89 -124 -87 -124 4
0 -18 -28 -41 -54 -6 -6 -24 -29 -40 -51 -57 -78 -199 -251 -249 -303 -28 -29
-52 -58 -54 -63 -2 -5 -8 -9 -14 -9 -30 0 49 247 144 450 120 258 218 419 362
599 95 117 139 152 176 139 15 -5 33 -21 40 -36z m-5291 17 c25 -27 45 -110
38 -160 -4 -32 -44 -109 -80 -154 -4 -5 -24 -33 -45 -62 -136 -191 -168 -233
-174 -233 -5 0 -8 -5 -8 -10 0 -6 -5 -16 -10 -23 -6 -7 -47 -59 -92 -117 -45
-58 -84 -107 -87 -110 -3 -3 -24 -27 -46 -55 -87 -110 -209 -232 -213 -213 -1
7 7 45 18 83 24 83 25 84 34 110 5 11 13 34 18 50 6 17 24 58 40 93 15 35 28
65 28 68 0 8 111 230 138 276 15 25 42 73 61 105 18 32 37 60 40 63 4 3 27 34
53 70 56 79 98 130 159 193 53 54 94 62 128 26z"/>
<path d="M14185 7168 c-16 -4 -42 -10 -56 -13 -120 -22 -191 -144 -191 -330
-1 -91 9 -223 18 -236 2 -4 -17 -23 -43 -42 -62 -45 -183 -179 -183 -202 0 -4
-8 -19 -18 -33 -21 -31 -105 -184 -104 -192 0 -3 -9 -23 -19 -45 -23 -49 -89
-245 -101 -300 -39 -173 -50 -326 -33 -449 23 -168 167 -325 390 -427 157 -71
306 -95 410 -64 75 21 106 43 224 155 36 35 121 151 121 166 0 7 4 14 8 16 10
4 92 146 92 159 0 5 5 9 10 9 6 0 9 3 8 8 -2 4 21 55 50 115 47 96 55 106 72
97 17 -9 96 -29 175 -45 31 -6 228 -7 255 -2 68 14 85 43 84 139 -1 74 -20
110 -60 108 -212 -8 -229 -7 -298 12 -87 24 -98 32 -86 63 9 25 48 215 56 275
3 19 6 45 9 57 25 142 22 401 -6 508 -16 58 -61 169 -71 173 -4 2 -8 10 -8 17
0 17 -138 165 -154 165 -7 0 -21 8 -32 18 -45 40 -194 102 -284 117 -65 11
-200 13 -235 3z m320 -467 c10 -45 15 -91 12 -102 -3 -10 -1 -19 3 -19 4 0 7
-73 5 -162 -3 -156 -5 -182 -20 -238 -4 -14 -7 -31 -7 -38 -2 -28 -22 -3 -40
49 -22 64 -55 198 -63 254 -7 50 -7 172 0 205 14 72 18 88 33 120 26 59 34 65
48 38 7 -13 20 -61 29 -107z m-361 -617 c41 -88 158 -223 237 -275 23 -16 23
-18 11 -55 -22 -63 -153 -324 -163 -324 -5 0 -8 -3 -7 -7 11 -34 -253 -293
-298 -293 -7 0 -14 17 -17 38 -6 45 -2 243 7 292 3 19 8 51 12 70 3 19 7 44 9
55 10 73 89 349 120 420 7 17 21 49 31 73 10 23 23 42 29 42 6 0 19 -16 29
-36z"/>
<path d="M990 6750 c-69 -26 -141 -66 -185 -102 -104 -87 -271 -280 -327 -379
-12 -21 -25 -39 -30 -39 -4 0 -8 -4 -8 -10 0 -5 -15 -33 -34 -62 -18 -29 -65
-118 -104 -197 -60 -121 -69 -146 -57 -157 7 -8 22 -24 32 -37 16 -21 66 -64
227 -202 72 -62 94 -80 126 -108 14 -12 50 -42 80 -67 30 -25 57 -48 60 -51 3
-4 25 -23 50 -44 62 -51 130 -109 160 -135 37 -33 126 -100 132 -100 3 0 9 20
12 43 9 61 15 94 26 152 5 28 12 64 15 80 3 17 7 41 10 55 3 14 8 40 11 59 3
18 8 43 10 55 13 68 17 93 19 111 1 11 5 36 8 55 14 72 19 102 32 205 1 11 4
20 5 20 1 0 3 16 5 35 1 19 5 58 9 85 17 124 19 159 20 305 0 140 -7 251 -19
270 -2 3 -6 19 -9 35 -7 37 -50 100 -83 122 -36 24 -134 26 -193 3z"/>
</g>
</svg>
